<svg width="605" height="627" viewBox="0 0 605 627" fill="none" xmlns="http://www.w3.org/2000/svg">
<path fill-rule="evenodd" clip-rule="evenodd" d="M-66.3125 77.0125C-98.5737 134.02 -45.2085 212.075 -38.7147 281.949C-32.6184 347.546 -68.2003 413.538 -29.4987 473.135C9.69495 533.49 88.3612 554.507 155.637 581.234C221.758 607.501 288.725 631.556 354.836 625.82C426.656 619.588 495.962 597.327 540.173 547.868C585.881 496.734 616.617 425.638 599.373 352.257C582.928 282.272 513.97 229.954 453.982 181.078C407.995 143.608 350.602 135.09 298.613 107.202C236.265 73.7573 186.818 7.36633 119.811 1.82305C46.1532 -4.27052 -33.6785 19.346 -66.3125 77.0125Z" fill="#0C1F54"/>
</svg>
