<svg width="686" height="744" viewBox="0 0 686 744" fill="none" xmlns="http://www.w3.org/2000/svg">
<path fill-rule="evenodd" clip-rule="evenodd" d="M-110.078 90.7799C-148.332 158.376 -85.0544 250.929 -77.3545 333.781C-70.1259 411.563 -112.317 489.812 -66.4267 560.479C-19.9533 632.044 73.3245 656.964 153.096 688.655C231.498 719.802 310.904 748.324 389.294 741.523C474.454 734.133 556.632 707.738 609.056 649.092C663.254 588.461 699.698 504.159 679.252 417.148C659.752 334.164 577.985 272.129 506.856 214.174C452.327 169.745 384.274 159.644 322.628 126.577C248.699 86.9201 190.068 8.19766 110.616 1.62478C23.2768 -5.6006 -71.3828 22.4024 -110.078 90.7799Z" stroke="#0C1F54"/>
</svg>
