<svg width="413" height="670" viewBox="0 0 413 670" fill="none" xmlns="http://www.w3.org/2000/svg">
<path fill-rule="evenodd" clip-rule="evenodd" d="M411.266 178.683C423.202 259.987 325.428 327.149 286.196 405.96C249.366 479.948 261.119 573.266 188.858 625.472C115.677 678.342 14.1245 667.316 -76.6861 668.128C-165.939 668.926 -255.18 666.751 -329.931 630.109C-411.137 590.303 -482.145 532.881 -511.48 454.999C-541.808 374.48 -545.58 277.384 -492.184 199.337C-441.259 124.901 -336.893 94.9102 -244.581 64.8837C-173.813 41.8648 -102.808 57.8823 -29.3561 48.7912C58.7312 37.8888 146.64 -17.4012 227.546 6.44924C316.483 32.6673 399.193 96.4404 411.266 178.683Z" stroke="#0C1F54"/>
</svg>
