<svg width="624" height="670" viewBox="0 0 624 670" fill="none" xmlns="http://www.w3.org/2000/svg">
<path fill-rule="evenodd" clip-rule="evenodd" d="M716.511 82.4405C750.956 143.306 693.979 226.642 687.046 301.245C680.537 371.281 718.527 441.738 677.206 505.368C635.361 569.807 551.371 592.246 479.543 620.781C408.948 648.826 337.449 674.509 266.865 668.384C190.185 661.731 116.189 637.964 68.9863 585.158C20.185 530.564 -12.6303 454.657 5.78001 376.31C23.3383 301.59 96.9628 245.732 161.009 193.548C210.108 153.542 271.385 144.448 326.892 114.673C393.459 78.965 446.252 8.0815 517.793 2.16312C596.435 -4.34278 681.669 20.8718 716.511 82.4405Z" stroke="#0C1F54"/>
</svg>
