<svg width="679" height="744" viewBox="0 0 679 744" fill="none" xmlns="http://www.w3.org/2000/svg">
<path fill-rule="evenodd" clip-rule="evenodd" d="M796.054 90.7799C834.307 158.376 771.03 250.929 763.33 333.781C756.101 411.563 798.292 489.812 752.402 560.479C705.929 632.044 612.651 656.964 532.88 688.655C454.477 719.802 375.071 748.324 296.681 741.523C211.522 734.133 129.343 707.738 76.9198 649.092C22.7216 588.461 -13.7228 504.159 6.72357 417.148C26.2236 334.164 107.99 272.129 179.119 214.174C233.648 169.745 301.702 159.644 363.347 126.577C437.276 86.9201 495.907 8.19766 575.359 1.62478C662.699 -5.6006 757.358 22.4024 796.054 90.7799Z" stroke="#0C1F54"/>
</svg>
